<svg id="gradient" height="512" viewBox="0 0 64 64" width="512" xmlns="http://www.w3.org/2000/svg" xmlns:xlink="http://www.w3.org/1999/xlink"><linearGradient id="linear-gradient" gradientUnits="userSpaceOnUse" x1="-5.208" x2="67.696" y1="32" y2="32"><stop offset="0" stop-color="#d8b5ff"/><stop offset="1" stop-color="#1eae98"/></linearGradient><linearGradient id="linear-gradient-2" x1="-5.208" x2="67.696" xlink:href="#linear-gradient" y1="30.51" y2="30.51"/><linearGradient id="linear-gradient-3" x1="-5.208" x2="67.696" xlink:href="#linear-gradient" y1="24" y2="24"/><linearGradient id="linear-gradient-4" x1="-5.208" x2="67.696" xlink:href="#linear-gradient" y1="7" y2="7"/><linearGradient id="linear-gradient-6" x1="-5.208" x2="67.696" xlink:href="#linear-gradient" y1="57" y2="57"/><path d="m53 59.007v-54.014a3 3 0 0 0 -2.993-2.993h-36.014a3 3 0 0 0 -2.993 2.993v54.014a3 3 0 0 0 2.993 2.993h36.014a3 3 0 0 0 2.993-2.993zm-40 0v-54.014a.994.994 0 0 1 .993-.993h36.014a.994.994 0 0 1 .993.993v54.014a.994.994 0 0 1 -.993.993h-36.014a.994.994 0 0 1 -.993-.993z" fill="url(#linear-gradient)"/><path d="m32 7a16.992 16.992 0 0 0 -12.407 28.611 10 10 0 1 0 15.407 8.41 9.914 9.914 0 0 0 -.54-3.22 16.777 16.777 0 0 0 3.885-1.042l3.655 3.655v10.586h2v-11a1 1 0 0 0 -.293-.707l-3.447-3.447a17.122 17.122 0 0 0 2.485-1.686l4.255 4.254v12.586h2v-13a1 1 0 0 0 -.293-.707l-4.495-4.493a16.98 16.98 0 0 0 -12.212-28.8zm0 2a14.992 14.992 0 0 1 .43 29.978l1-2.2a2.682 2.682 0 0 0 -.543-2.993 2.734 2.734 0 0 0 -3.776 0l-3.691 3.692a15 15 0 0 1 6.58-28.477zm-1.474 26.2a.671.671 0 0 1 .948 0 .674.674 0 0 1 .137.752l-3.92 8.624a2.338 2.338 0 0 1 -1.385 1.246l-.239.08a2.33 2.33 0 0 1 -2.384-3.858zm2.474 8.821a8 8 0 1 1 -11.891-6.969 16.958 16.958 0 0 0 2.824 1.909l-1.664 1.664a4.335 4.335 0 0 0 3.047 7.4 4.371 4.371 0 0 0 1.384-.225l.238-.079a4.336 4.336 0 0 0 2.573-2.321l2.007-4.415c.161 0 .32.016.482.016.131 0 .259-.017.389-.02a7.908 7.908 0 0 1 .611 3.04z" fill="url(#linear-gradient-2)"/><path d="m32 30a6 6 0 1 0 -6-6 6.006 6.006 0 0 0 6 6zm0-10a4 4 0 1 1 -4 4 4 4 0 0 1 4-4z" fill="url(#linear-gradient-3)"/><path d="m47 6h2v2h-2z" fill="url(#linear-gradient-4)"/><path d="m15 6h2v2h-2z" fill="url(#linear-gradient-4)"/><path d="m15 56h2v2h-2z" fill="url(#linear-gradient-6)"/><path d="m47 56h2v2h-2z" fill="url(#linear-gradient-6)"/><path d="m31 23h2v2h-2z" fill="url(#linear-gradient-3)"/></svg>