<svg id="gradient" height="512" viewBox="0 0 64 64" width="512" xmlns="http://www.w3.org/2000/svg" xmlns:xlink="http://www.w3.org/1999/xlink"><linearGradient id="linear-gradient" gradientUnits="userSpaceOnUse" x1="-5.208" x2="67.696" y1="32" y2="32"><stop offset="0" stop-color="#d8b5ff"/><stop offset="1" stop-color="#1eae98"/></linearGradient><g fill="url(#linear-gradient)"><path d="m61 2h-58a1 1 0 0 0 -1 1v58a1 1 0 0 0 1 1h58a1 1 0 0 0 1-1v-58a1 1 0 0 0 -1-1zm-1 58h-56v-56h56z"/><path d="m9 41h7v6a1 1 0 0 0 1 1h9v5a1 1 0 0 0 1 1h10a1 1 0 0 0 1-1v-5h9a1 1 0 0 0 1-1v-6h7a1 1 0 0 0 1-1v-29a1 1 0 0 0 -1-1h-46a1 1 0 0 0 -1 1v29a1 1 0 0 0 1 1zm34-29h2v10h-2zm-8 0h2v10h-2zm-8 0h2v10h-2zm-8 0h2v10h-2zm-9 0h7v11a1 1 0 0 0 1 1h4a1 1 0 0 0 1-1v-11h2v11a1 1 0 0 0 1 1h4a1 1 0 0 0 1-1v-11h2v11a1 1 0 0 0 1 1h4a1 1 0 0 0 1-1v-11h2v11a1 1 0 0 0 1 1h4a1 1 0 0 0 1-1v-11h7v27h-7a1 1 0 0 0 -1 1v6h-9a1 1 0 0 0 -1 1v5h-8v-5a1 1 0 0 0 -1-1h-9v-6a1 1 0 0 0 -1-1h-7z"/></g></svg>