<svg id="gradient" height="512" viewBox="0 0 64 64" width="512" xmlns="http://www.w3.org/2000/svg" xmlns:xlink="http://www.w3.org/1999/xlink"><linearGradient id="linear-gradient" gradientUnits="userSpaceOnUse" x1="-5.218" x2="71.418" y1="32" y2="32"><stop offset="0" stop-color="#d8b5ff"/><stop offset="1" stop-color="#1eae98"/></linearGradient><linearGradient id="linear-gradient-3" x1="-5.218" x2="71.418" xlink:href="#linear-gradient" y1="24" y2="24"/><linearGradient id="linear-gradient-12" x1="-5.218" x2="71.418" xlink:href="#linear-gradient" y1="20" y2="20"/><linearGradient id="linear-gradient-21" x1="-5.218" x2="71.418" xlink:href="#linear-gradient" y1="16" y2="16"/><linearGradient id="linear-gradient-30" x1="-5.218" x2="71.418" xlink:href="#linear-gradient" y1="48" y2="48"/><linearGradient id="linear-gradient-39" x1="-5.218" x2="71.418" xlink:href="#linear-gradient" y1="44" y2="44"/><linearGradient id="linear-gradient-48" x1="-5.218" x2="71.418" xlink:href="#linear-gradient" y1="40" y2="40"/><linearGradient id="linear-gradient-52" x1="-5.218" x2="71.418" xlink:href="#linear-gradient" y1="36" y2="36"/><linearGradient id="linear-gradient-58" x1="-5.218" x2="71.418" xlink:href="#linear-gradient" y1="28" y2="28"/><path d="m36 27h-8a1 1 0 0 0 -1 1v8a1 1 0 0 0 1 1h8a1 1 0 0 0 1-1v-8a1 1 0 0 0 -1-1zm-1 8h-6v-6h6z" fill="url(#linear-gradient)"/><path d="m54 11a1 1 0 0 0 -1-1h-2v-8h-2v8h-2v-8h-2v8h-2v-8h-2v8h-2v-8h-2v8h-2v-8h-2v8h-2v-8h-2v8h-2v-8h-2v8h-2v-8h-2v8h-2v-8h-2v8h-2v-8h-2v8h-2a1 1 0 0 0 -1 1v2h-8v2h8v2h-8v2h8v2h-8v2h8v2h-8v2h8v2h-8v2h8v2h-8v2h8v2h-8v2h8v2h-8v2h8v2h-8v2h8v2h-8v2h8v2a1 1 0 0 0 1 1h2v8h2v-8h2v8h2v-8h2v8h2v-8h2v8h2v-8h2v8h2v-8h2v8h2v-8h2v8h2v-8h2v8h2v-8h2v8h2v-8h2v8h2v-8h2a1 1 0 0 0 1-1v-2h8v-2h-8v-2h8v-2h-8v-2h8v-2h-8v-2h8v-2h-8v-2h8v-2h-8v-2h8v-2h-8v-2h8v-2h-8v-2h8v-2h-8v-2h8v-2h-8v-2h8v-2h-8zm-2 6v35h-40v-40h40z" fill="url(#linear-gradient)"/><g fill="url(#linear-gradient-3)"><path d="m23 23h2v2h-2z"/><path d="m27 23h2v2h-2z"/><path d="m15 23h2v2h-2z"/><path d="m19 23h2v2h-2z"/><path d="m31 23h2v2h-2z"/><path d="m35 23h2v2h-2z"/><path d="m39 23h2v2h-2z"/><path d="m43 23h2v2h-2z"/><path d="m47 23h2v2h-2z"/></g><path d="m23 19h2v2h-2z" fill="url(#linear-gradient-12)"/><path d="m27 19h2v2h-2z" fill="url(#linear-gradient-12)"/><path d="m15 19h2v2h-2z" fill="url(#linear-gradient-12)"/><path d="m19 19h2v2h-2z" fill="url(#linear-gradient-12)"/><path d="m31 19h2v2h-2z" fill="url(#linear-gradient-12)"/><path d="m35 19h2v2h-2z" fill="url(#linear-gradient-12)"/><path d="m39 19h2v2h-2z" fill="url(#linear-gradient-12)"/><path d="m43 19h2v2h-2z" fill="url(#linear-gradient-12)"/><path d="m47 19h2v2h-2z" fill="url(#linear-gradient-12)"/><path d="m23 15h2v2h-2z" fill="url(#linear-gradient-21)"/><path d="m27 15h2v2h-2z" fill="url(#linear-gradient-21)"/><path d="m15 15h2v2h-2z" fill="url(#linear-gradient-21)"/><path d="m19 15h2v2h-2z" fill="url(#linear-gradient-21)"/><path d="m31 15h2v2h-2z" fill="url(#linear-gradient-21)"/><path d="m35 15h2v2h-2z" fill="url(#linear-gradient-21)"/><path d="m39 15h2v2h-2z" fill="url(#linear-gradient-21)"/><path d="m43 15h2v2h-2z" fill="url(#linear-gradient-21)"/><path d="m47 15h2v2h-2z" fill="url(#linear-gradient-21)"/><path d="m23 47h2v2h-2z" fill="url(#linear-gradient-30)"/><path d="m27 47h2v2h-2z" fill="url(#linear-gradient-30)"/><path d="m15 47h2v2h-2z" fill="url(#linear-gradient-30)"/><path d="m19 47h2v2h-2z" fill="url(#linear-gradient-30)"/><path d="m31 47h2v2h-2z" fill="url(#linear-gradient-30)"/><path d="m35 47h2v2h-2z" fill="url(#linear-gradient-30)"/><path d="m39 47h2v2h-2z" fill="url(#linear-gradient-30)"/><path d="m43 47h2v2h-2z" fill="url(#linear-gradient-30)"/><path d="m47 47h2v2h-2z" fill="url(#linear-gradient-30)"/><path d="m23 43h2v2h-2z" fill="url(#linear-gradient-39)"/><path d="m27 43h2v2h-2z" fill="url(#linear-gradient-39)"/><path d="m15 43h2v2h-2z" fill="url(#linear-gradient-39)"/><path d="m19 43h2v2h-2z" fill="url(#linear-gradient-39)"/><path d="m31 43h2v2h-2z" fill="url(#linear-gradient-39)"/><path d="m35 43h2v2h-2z" fill="url(#linear-gradient-39)"/><path d="m39 43h2v2h-2z" fill="url(#linear-gradient-39)"/><path d="m43 43h2v2h-2z" fill="url(#linear-gradient-39)"/><path d="m47 43h2v2h-2z" fill="url(#linear-gradient-39)"/><path d="m23 39h2v2h-2z" fill="url(#linear-gradient-48)"/><path d="m27 39h2v2h-2z" fill="url(#linear-gradient-48)"/><path d="m15 39h2v2h-2z" fill="url(#linear-gradient-48)"/><path d="m19 39h2v2h-2z" fill="url(#linear-gradient-48)"/><path d="m23 35h2v2h-2z" fill="url(#linear-gradient-52)"/><path d="m15 35h2v2h-2z" fill="url(#linear-gradient-52)"/><path d="m19 35h2v2h-2z" fill="url(#linear-gradient-52)"/><path d="m23 31h2v2h-2z" fill="url(#linear-gradient)"/><path d="m15 31h2v2h-2z" fill="url(#linear-gradient)"/><path d="m19 31h2v2h-2z" fill="url(#linear-gradient)"/><path d="m23 27h2v2h-2z" fill="url(#linear-gradient-58)"/><path d="m15 27h2v2h-2z" fill="url(#linear-gradient-58)"/><path d="m19 27h2v2h-2z" fill="url(#linear-gradient-58)"/><path d="m31 39h2v2h-2z" fill="url(#linear-gradient-48)"/><path d="m35 39h2v2h-2z" fill="url(#linear-gradient-48)"/><path d="m39 39h2v2h-2z" fill="url(#linear-gradient-48)"/><path d="m43 39h2v2h-2z" fill="url(#linear-gradient-48)"/><path d="m47 39h2v2h-2z" fill="url(#linear-gradient-48)"/><path d="m39 35h2v2h-2z" fill="url(#linear-gradient-52)"/><path d="m43 35h2v2h-2z" fill="url(#linear-gradient-52)"/><path d="m47 35h2v2h-2z" fill="url(#linear-gradient-52)"/><path d="m39 31h2v2h-2z" fill="url(#linear-gradient)"/><path d="m43 31h2v2h-2z" fill="url(#linear-gradient)"/><path d="m47 31h2v2h-2z" fill="url(#linear-gradient)"/><path d="m39 27h2v2h-2z" fill="url(#linear-gradient-58)"/><path d="m43 27h2v2h-2z" fill="url(#linear-gradient-58)"/><path d="m47 27h2v2h-2z" fill="url(#linear-gradient-58)"/></svg>