<svg id="gradient" height="512" viewBox="0 0 64 64" width="512" xmlns="http://www.w3.org/2000/svg" xmlns:xlink="http://www.w3.org/1999/xlink"><linearGradient id="linear-gradient" gradientUnits="userSpaceOnUse" x1="-5.218" x2="71.418" y1="25" y2="25"><stop offset="0" stop-color="#d8b5ff"/><stop offset="1" stop-color="#1eae98"/></linearGradient><linearGradient id="linear-gradient-2" x1="-5.218" x2="71.418" xlink:href="#linear-gradient" y1="11" y2="11"/><linearGradient id="linear-gradient-8" x1="-5.218" x2="71.418" xlink:href="#linear-gradient" y1="39" y2="39"/><linearGradient id="linear-gradient-17" x1="-5.218" x2="71.418" xlink:href="#linear-gradient" y1="53" y2="53"/><path d="m11 29a1 1 0 0 0 1 1h12a1 1 0 0 0 1-1v-3h24v-2h-24v-3a1 1 0 0 0 -1-1h-12a1 1 0 0 0 -1 1v3h-4v2h4zm6-1v-6h2v6zm6 0h-2v-6h2zm-10-6h2v6h-2z" fill="url(#linear-gradient)"/><path d="m11 10h2v2h-2z" fill="url(#linear-gradient-2)"/><path d="m7 10h2v2h-2z" fill="url(#linear-gradient-2)"/><path d="m3 10h2v2h-2z" fill="url(#linear-gradient-2)"/><path d="m59 10h2v2h-2z" fill="url(#linear-gradient-2)"/><path d="m55 10h2v2h-2z" fill="url(#linear-gradient-2)"/><path d="m53 10h-4v-3a1 1 0 0 0 -1-1h-12a1 1 0 0 0 -1 1v3h-20v2h20v3a1 1 0 0 0 1 1h12a1 1 0 0 0 1-1v-3h4zm-10-2v6h-2v-6zm-6 0h2v6h-2zm10 6h-2v-6h2z" fill="url(#linear-gradient-2)"/><path d="m12 38h2v2h-2z" fill="url(#linear-gradient-8)"/><path d="m8 38h2v2h-2z" fill="url(#linear-gradient-8)"/><path d="m4 38h2v2h-2z" fill="url(#linear-gradient-8)"/><path d="m60 38h2v2h-2z" fill="url(#linear-gradient-8)"/><path d="m58 38h-8v-3a1 1 0 0 0 -1-1h-12a1 1 0 0 0 -1 1v3h-20v2h20v3a1 1 0 0 0 1 1h12a1 1 0 0 0 1-1v-3h8zm-14-2v6h-2v-6zm-6 0h2v6h-2zm10 6h-2v-6h2z" fill="url(#linear-gradient-8)"/><path d="m3 24h2v2h-2z" fill="url(#linear-gradient)"/><path d="m59 24h2v2h-2z" fill="url(#linear-gradient)"/><path d="m55 24h2v2h-2z" fill="url(#linear-gradient)"/><path d="m51 24h2v2h-2z" fill="url(#linear-gradient)"/><g fill="url(#linear-gradient-17)"><path d="m20 58h12a1 1 0 0 0 1-1v-3h12v-2h-12v-3a1 1 0 0 0 -1-1h-12a1 1 0 0 0 -1 1v3h-9v2h9v3a1 1 0 0 0 1 1zm5-2v-6h2v6zm6 0h-2v-6h2zm-10-6h2v6h-2z"/><path d="m2 52h2v2h-2z"/><path d="m6 52h2v2h-2z"/><path d="m59 52h2v2h-2z"/><path d="m55 52h2v2h-2z"/><path d="m51 52h2v2h-2z"/><path d="m47 52h2v2h-2z"/></g></svg>