<svg id="gradient" height="512" viewBox="0 0 64 64" width="512" xmlns="http://www.w3.org/2000/svg" xmlns:xlink="http://www.w3.org/1999/xlink"><linearGradient id="linear-gradient" gradientUnits="userSpaceOnUse" x1="-8.902" x2="76.161" y1="17" y2="17"><stop offset="0" stop-color="#d8b5ff"/><stop offset="1" stop-color="#1eae98"/></linearGradient><linearGradient id="linear-gradient-2" x1="-8.902" x2="76.161" xlink:href="#linear-gradient" y1="11.5" y2="11.5"/><linearGradient id="linear-gradient-3" x1="-8.902" x2="76.161" xlink:href="#linear-gradient" y1="32" y2="32"/><path d="m32 12a5 5 0 1 0 5 5 5.006 5.006 0 0 0 -5-5zm0 8a3 3 0 1 1 3-3 3 3 0 0 1 -3 3z" fill="url(#linear-gradient)"/><path d="m41 17h2a11.013 11.013 0 0 0 -11-11v2a9.01 9.01 0 0 1 9 9z" fill="url(#linear-gradient-2)"/><path d="m14 62h36a1 1 0 0 0 1-1v-25h5a1 1 0 0 0 .707-1.707l-6-6a1 1 0 0 0 -.707-.293h-7.8a15 15 0 1 0 -20.4 0h-7.8a1 1 0 0 0 -.707.293l-6 6a1 1 0 0 0 .707 1.707h5v25a1 1 0 0 0 1 1zm1-2v-24h21a1 1 0 0 0 .707-.293l4.293-4.293v28.586zm34 0h-6v-28.586l4.293 4.293a1 1 0 0 0 .707.293h1zm.586-30 4 4h-5.172l-4-4zm-30.586-13a13 13 0 1 1 19.907 11h-13.814a12.9 12.9 0 0 1 -6.093-11zm-4.586 13h25.172l-4 4h-25.172z" fill="url(#linear-gradient-3)"/></svg>