<svg id="Слой_1" data-name="Слой 1" xmlns="http://www.w3.org/2000/svg" xmlns:xlink="http://www.w3.org/1999/xlink" viewBox="0 0 512 512"><defs><style>.cls-1{fill:url(#Новый_образец_градиентной_залив);}.cls-2{fill:url(#Новый_образец_градиентной_залив-2);}.cls-3{fill:url(#Новый_образец_градиентной_залив-3);}.cls-4{fill:url(#Новый_образец_градиентной_залив-4);}</style><linearGradient id="Новый_образец_градиентной_залив" x1="144.14" y1="358.18" x2="367.56" y2="358.18" gradientTransform="matrix(1, 0, 0, -1, 0, 514)" gradientUnits="userSpaceOnUse"><stop offset="0" stop-color="#d8b5ff"/><stop offset="1" stop-color="#1eae98"/></linearGradient><linearGradient id="Новый_образец_градиентной_залив-2" x1="72" y1="156.39" x2="439.71" y2="156.39" xlink:href="#Новый_образец_градиентной_залив"/><linearGradient id="Новый_образец_градиентной_залив-3" x1="216.29" y1="391.64" x2="231.29" y2="391.64" xlink:href="#Новый_образец_градиентной_залив"/><linearGradient id="Новый_образец_градиентной_залив-4" x1="248.39" y1="391.65" x2="303.44" y2="391.65" xlink:href="#Новый_образец_градиентной_залив"/></defs><title>037-ip-01</title><path class="cls-1" d="M222.81,255.16a6.62,6.62,0,0,0,1.66-9.21,5.93,5.93,0,0,0-.43-.56c-53.63-62.88-64.9-103.63-64.9-126.75,0-49.48,43.39-89.72,96.72-89.72s96.7,40.24,96.7,89.72c0,61.16-75.77,140.3-96.71,161-2.68-2.64-6.24-6.22-10.41-10.57a7.92,7.92,0,0,0-10.59-.59,6.6,6.6,0,0,0-1.1,9.28,6.06,6.06,0,0,0,.47.54c9.66,10.11,16.06,16.06,16.33,16.3a7.92,7.92,0,0,0,10.61,0c4.34-4,106.4-99.59,106.4-176,0-57.11-50.11-103.6-111.7-103.6S144.14,61.49,144.14,118.64c0,45.88,37.06,99,68.14,135.39A7.89,7.89,0,0,0,222.81,255.16Z"/><path class="cls-2" d="M424.2,312.47H412.54c-7.25-33.58-26.88-63.83-55.75-85.67a7.91,7.91,0,0,0-10.55,1,6.62,6.62,0,0,0,.52,9.35c.17.15.36.3.55.44,25.38,19.2,42.88,45.56,49.9,74.89h-5.08c-8.56,0-15.52,6.46-15.52,14.4v7.92H287.4v-7.92c0-7.94-6.95-14.4-15.51-14.4H239.82c-8.55,0-15.51,6.46-15.51,14.4v7.92H135.1v-7.92c0-7.94-7-14.4-15.52-14.4H114.5c7-29.33,24.52-55.69,49.9-74.89a6.61,6.61,0,0,0,1.51-9.24c-.14-.19-.28-.37-.44-.55a7.91,7.91,0,0,0-10.55-1c-28.87,21.84-48.49,52.09-55.74,85.68H87.52C79,312.48,72,318.93,72,326.87v29.75C72,364.55,79,371,87.52,371H99.17c7,32.18,25.41,61.5,52.43,83.1,29,23.14,66,35.89,104.26,35.89s75.29-12.75,104.25-35.89c27-21.6,45.47-50.92,52.43-83.1H424.2c8.55,0,15.51-6.46,15.51-14.39V326.87C439.71,318.93,432.75,312.47,424.2,312.47Zm-184.89,14.4a.5.5,0,0,1,.51-.48h32.07a.49.49,0,0,1,.51.47h0v29.75a.49.49,0,0,1-.51.47H239.82a.49.49,0,0,1-.51-.47h0ZM87,356.62V326.87a.5.5,0,0,1,.52-.48h32.06a.52.52,0,0,1,.52.48v29.75a.51.51,0,0,1-.52.47H87.52a.49.49,0,0,1-.52-.46Zm263.32,86.95c-26.24,21-59.78,32.51-94.46,32.51s-68.23-11.55-94.47-32.51c-23.72-19-40.15-44.49-46.89-72.56h5.08c8.56,0,15.52-6.46,15.52-14.39V348.7h89.21v7.92c0,7.93,7,14.39,15.51,14.39h32.07c8.55,0,15.51-6.46,15.51-14.39V348.7h89.21v7.92c0,7.93,7,14.39,15.52,14.39h5.08C390.47,399.08,374,424.61,350.32,443.57Zm74.39-86.95a.49.49,0,0,1-.51.47H392.13a.49.49,0,0,1-.52-.46h0V326.87a.5.5,0,0,1,.52-.48H424.2a.5.5,0,0,1,.51.48Z"/><path class="cls-3" d="M216.29,88.89v66.93a7.52,7.52,0,0,0,15,0V88.89a7.52,7.52,0,0,0-15,0Z"/><path class="cls-4" d="M263.36,155.82V133h12.53c15.19,0,27.55-11.46,27.55-25.55S291.08,81.9,275.89,81.9h-20a7.24,7.24,0,0,0-7.5,7v67a7.52,7.52,0,0,0,15,0Zm0-60h12.53c6.92,0,12.55,5.22,12.55,11.63s-5.63,11.64-12.55,11.64H263.36Z"/></svg>