<svg id="Capa_1" data-name="Capa 1" xmlns="http://www.w3.org/2000/svg" xmlns:xlink="http://www.w3.org/1999/xlink" viewBox="0 0 512 512"><defs><style>.cls-1{fill:url(#Новый_образец_градиентной_залив);}.cls-2{fill:url(#Новый_образец_градиентной_залив-2);}.cls-3{fill:url(#Новый_образец_градиентной_залив-3);}.cls-4{fill:url(#Новый_образец_градиентной_залив-4);}.cls-5{fill:url(#Новый_образец_градиентной_залив-5);}.cls-6{fill:url(#Новый_образец_градиентной_залив-6);}.cls-7{fill:url(#Новый_образец_градиентной_залив-7);}</style><linearGradient id="Новый_образец_градиентной_залив" x1="130.31" y1="319.66" x2="385.52" y2="319.66" gradientTransform="matrix(1, 0, 0, -1, 0, 514)" gradientUnits="userSpaceOnUse"><stop offset="0" stop-color="#d8b5ff"/><stop offset="1" stop-color="#1eae98"/></linearGradient><linearGradient id="Новый_образец_градиентной_залив-2" x1="179.88" y1="355.52" x2="335.97" y2="355.52" xlink:href="#Новый_образец_градиентной_залив"/><linearGradient id="Новый_образец_градиентной_залив-3" x1="298.27" y1="405.24" x2="315.77" y2="405.24" xlink:href="#Новый_образец_градиентной_залив"/><linearGradient id="Новый_образец_градиентной_залив-4" x1="36" y1="135.45" x2="480" y2="135.45" xlink:href="#Новый_образец_градиентной_залив"/><linearGradient id="Новый_образец_градиентной_залив-5" x1="340.85" y1="220.03" x2="358.52" y2="220.03" xlink:href="#Новый_образец_градиентной_залив"/><linearGradient id="Новый_образец_градиентной_залив-6" x1="175.23" y1="188.4" x2="192.59" y2="188.4" xlink:href="#Новый_образец_градиентной_залив"/><linearGradient id="Новый_образец_градиентной_залив-7" x1="126.32" y1="154.6" x2="389.72" y2="154.6" xlink:href="#Новый_образец_градиентной_залив"/></defs><title>038-geo-01</title><path class="cls-1" d="M257.89,27c-70.35,0-127.58,58.13-127.58,129.58a131,131,0,0,0,28.52,81.66,5.47,5.47,0,0,0,.44.63L251.05,358.3a8.6,8.6,0,0,0,13.68,0L357,238.24l.1-.12a131.13,131.13,0,0,0,28.42-81.54C385.47,85.13,328.24,27,257.89,27Zm85.5,200.26c-.11.14-.22.27-.32.42L257.89,338.57,173.57,228.85a8.63,8.63,0,0,0-.71-1,113.19,113.19,0,0,1-25.21-71.26c0-61.74,49.46-112,110.24-112s110.24,50.22,110.24,112A113.34,113.34,0,0,1,343.39,227.26Z"/><path class="cls-2" d="M332.74,136a8.66,8.66,0,0,0-10.69-6l-.05,0A8.83,8.83,0,0,0,316.11,141a62.34,62.34,0,0,1-15.3,61.1,60,60,0,0,1-84.85,1c-.33-.32-.66-.66-1-1a62.35,62.35,0,0,1,0-87.19,60,60,0,0,1,60.21-15.52A8.66,8.66,0,0,0,286,93.6s0-.1,0-.15a8.83,8.83,0,0,0-5.86-11,77.21,77.21,0,0,0-77.4,20,80.14,80.14,0,0,0,0,112.1,77.2,77.2,0,0,0,109.17,1.21c.41-.4.81-.8,1.21-1.21A80.13,80.13,0,0,0,332.74,136Z"/><path class="cls-3" d="M313.23,102.61l-.15-.16a8.58,8.58,0,0,0-12.13-.14l-.14.14a8.92,8.92,0,0,0,0,12.46l.16.16a8.56,8.56,0,0,0,12.12.14l.14-.14A8.9,8.9,0,0,0,313.23,102.61Z"/><path class="cls-4" d="M391.22,295.93a8.65,8.65,0,0,0-11,5.45c0,.06,0,.11,0,.16a8.85,8.85,0,0,0,5.53,11.12c48.13,16.09,76.86,40.19,76.86,64.47,0,20.53-20.85,41.3-57.21,57C366.16,451.07,313.79,460.4,258,460.4s-108.21-9.33-147.45-26.27c-36.36-15.69-57.21-36.46-57.21-57,0-17.2,14.61-34.66,41.12-49.18,28-15.35,67.69-26.46,111.71-31.29a8.81,8.81,0,0,0-1.86-17.52c-46.21,5.08-88.14,16.9-118.08,33.3C53.37,330.44,36,352.81,36,377.13c0,28.35,24.07,54.35,67.76,73.2C145.1,468.17,199.88,478,258,478s112.9-9.83,154.24-27.67c43.69-18.85,67.76-44.85,67.76-73.2C480,344.38,447.64,314.79,391.22,295.93Z"/><path class="cls-5" d="M351.54,285.37l-.3-.06A8.67,8.67,0,0,0,341,292.09s0,.07,0,.11a8.8,8.8,0,0,0,6.78,10.38l.3.06a8.39,8.39,0,0,0,1.73.17,8.7,8.7,0,0,0,8.49-7.06A8.8,8.8,0,0,0,351.54,285.37Z"/><path class="cls-6" d="M192.43,323.87A8.68,8.68,0,0,0,182.29,317h-.06l-.6.14a8.82,8.82,0,0,0-6.08,10.82,8.7,8.7,0,0,0,8.36,6.49,8.51,8.51,0,0,0,2.07-.26A8.79,8.79,0,0,0,192.43,323.87Z"/><path class="cls-7" d="M286.94,309.53a8.81,8.81,0,0,0-1.36,17.56c56.62,4.5,86.78,21.32,86.78,31.74,0,5-7.88,13.55-30.1,21.07-22.38,7.57-52.3,11.73-84.26,11.73s-61.88-4.16-84.25-11.73c-22.22-7.52-30.11-16-30.11-21.07,0-4.59,6.13-10.38,16.4-15.48a8.88,8.88,0,0,0,4-11.78,8.63,8.63,0,0,0-11.5-4.06l-.11.06c-21.58,10.72-26.11,22.94-26.11,31.3,0,33.1,66.25,50.42,131.7,50.42s131.7-17.32,131.7-50.42C389.7,328.47,334.34,313.3,286.94,309.53Z"/></svg>